<svg version="1.0" xmlns="http://www.w3.org/2000/svg" width="434.6667" height="152" viewBox="0 0 326 114"><path fill="currentColor" d="M42 16c0 8.2-.2 15-.5 15s-1.8-.9-3.3-2c-9.8-7.1-23.8-3.9-30.8 7.1C.1 47.7.3 69.7 7.8 80.5c3.9 5.6 9.4 8.5 16.4 8.5 7.2 0 10.4-1.2 15.1-5.8l3.7-3.6v2.6c0 5.2.8 5.8 7.1 5.8H56V2.3l-5.2-.7C41.2.5 42-.9 42 16zm-6.7 21.1c1.2.6 3.2 2.1 4.5 3.2 2.1 1.9 2.2 2.8 2.2 16.5v14.5l-3.4 3.2C32 80.7 23 79.6 19.5 72.3c-2.6-5.4-3.1-18.6-1.1-25.5 2.6-9.1 9.9-13.3 16.9-9.7zM142.3 1.7l-4.3.4V88h6.5c6.1 0 6.5-.1 6.5-2.3 0-3.7 1-3.8 5.2-.4 3.4 2.7 4.9 3.2 10.7 3.5 8.1.5 13.2-1.6 18-7.5 5-6.1 6.6-12.2 6.6-25.3 0-10.3-.3-12.1-2.6-17-1.5-3-3.6-6.5-4.8-7.7-7.1-7.4-18.9-7.9-27.3-1.2-2 1.6-3.9 2.9-4.2 2.9-.3 0-.6-7.2-.6-16V1l-2.7.2c-1.6.1-4.7.3-7 .5zM172 38.8c1.5 1.6 3.3 4.6 3.9 6.8 1.4 4.9 1.4 17.7.1 22.6-3.2 11.2-14.3 14.1-21.5 5.6-2.4-2.8-2.5-3.6-2.5-15.6 0-10.8.3-13.1 1.9-15.6 4.6-7 13.1-8.8 18.1-3.8zM88.7 26.6C75.9 30.7 68.2 47 71 64.5c2 12.3 8.7 21 18.5 23.6 6.7 1.9 19.2.7 25.2-2.4 2.8-1.5 5.4-3.1 5.8-3.6.6-1.1-3.5-8.1-4.8-8.1-.4 0-2.7 1-5 2.2-5.8 3-14.5 3.1-18.4.2-3.3-2.5-5.8-6.6-6.8-11.1l-.7-3.3h39.5l-.5-8.3c-.9-13.4-6-22.4-15.1-26.2-5.6-2.3-14.4-2.7-20-.9zm14.3 9.9c3.7 1.9 6.1 6.4 6.3 11.8l.2 4.2-11.4.3c-6.3.1-11.8-.1-12.3-.6-1.2-1.2.7-9 3-12.1 3.7-5 9-6.3 14.2-3.6zM207 52c0 23.3.1 25.4 2 29.1 2.9 5.6 7.1 7.9 14.4 7.9 6.8 0 13.8-2.8 16.3-6.6 2.2-3.5 3.3-3 3.3 1.6v4h13V27h-15v43.9l-3.4 3.4c-5.3 5.3-12.9 5.7-15.5.8-.7-1.2-1.1-10.7-1.1-25V27h-14v25zM266 27.6c0 .7 9.9 32 15.6 49.6 3.2 9.8 3.8 10.8 6 10.8h2.4l-1.9 3.7c-2.6 5.2-5.2 7.3-11.3 9.4l-5.3 1.8.1 4.5c0 2.5.3 4.8.6 5.1.8.9 10.9-1.6 14.8-3.5 5.3-2.8 11-8.9 13.7-14.6 1.8-3.9 12.3-35.6 21.8-65.4.6-1.9.1-2-6.7-2h-7.4l-6.9 25.7c-4.9 18.1-7.1 25-7.7 23.7-.7-1.6-12.8-48.1-12.8-49.1 0-.1-3.4-.3-7.5-.3s-7.5.3-7.5.6z"/></svg>
